g bottle
v 5.541255E-10 -0.1082394 0.04104703
v -0.04104705 -0.1082394 -2.172952E-09
v -0.02902463 -0.1082394 0.02902464
v 0.04104705 -0.1082394 -8.739753E-09
v 0.02902463 -0.1082394 0.02902464
v 5.541255E-10 -0.1082394 -0.04104705
v -0.02902463 -0.1082394 -0.02902465
v 0.02902463 -0.1082394 -0.02902465
v 0.02902463 -0.1082394 0.02902464
v 0.04422407 -0.1020055 -8.739753E-09
v 0.04104705 -0.1082394 -8.739753E-09
v 0.03127113 -0.1020055 0.03127114
v 0.04893063 0.01885026 -8.739753E-09
v 5.541255E-10 -0.1082394 0.04104703
v 0.03459916 0.01885026 0.03459917
v 0.04201946 0.03594547 -8.739753E-09
v 5.541255E-10 -0.1020055 0.04422406
v -0.02902463 -0.1082394 0.02902464
v 0.02971225 0.03594547 0.02971225
v 0.02124615 0.0477756 -8.739753E-09
v -0.03127113 -0.1020055 0.03127114
v -0.04104705 -0.1082394 -2.172952E-09
v -0.04422407 -0.1020055 -2.172952E-09
v 5.541255E-10 0.01885026 0.04893061
v -0.03459916 0.01885026 0.03459917
v -0.04893063 0.01885026 -2.172952E-09
v 0.01502329 0.0477756 0.0150233
v 0.01855355 0.05398258 -8.739753E-09
v 5.541255E-10 0.03594547 0.04201946
v -0.02971225 0.03594547 0.02971225
v -0.04201946 0.03594547 -2.172952E-09
v 0.01311937 0.05398258 0.01311935
v 0.02065603 0.07503688 -2.172952E-09
v 5.541255E-10 0.0477756 0.02124614
v -0.01502329 0.0477756 0.0150233
v -0.02124615 0.0477756 -8.739753E-09
v 0.01460598 0.07503688 0.01460603
v 0.02465301 0.080233 -2.172952E-09
v 5.541255E-10 0.05398258 0.01855356
v -0.01311937 0.05398258 0.01311935
v -0.01855355 0.05398258 -8.739753E-09
v 0.01743226 0.08023296 0.01743231
v 0.02247819 0.09536252 -2.172952E-09
v -5.198029E-08 0.07503688 0.02065605
v -0.01460604 0.07503688 0.01460603
v -0.02065606 0.07503688 -2.172952E-09
v 0.01589447 0.09536246 0.01589451
v 0.01457922 0.09536246 -2.172952E-09
v 0.01030904 0.09536246 0.01030906
v -5.198029E-08 0.08023296 0.024653
v -0.01743228 0.08023296 0.01743231
v -0.02465308 0.080233 -2.172952E-09
v -5.198029E-08 0.09536246 0.02247823
v -5.198029E-08 0.09536246 0.0145792
v -0.01589457 0.09536246 0.01589451
v -0.02247827 0.09536252 -2.172952E-09
v -0.01030909 0.09536246 0.01030906
v -0.01457922 0.09536246 -2.172952E-09
v -0.02902463 -0.1082394 -0.02902465
v -0.04422407 -0.1020055 -2.172952E-09
v -0.04104705 -0.1082394 -2.172952E-09
v -0.03127113 -0.1020055 -0.03127116
v -0.04893063 0.01885026 -2.172952E-09
v 5.541255E-10 -0.1082394 -0.04104705
v -0.03459916 0.01885026 -0.03459918
v -0.04201946 0.03594547 -2.172952E-09
v 5.541255E-10 -0.1020055 -0.04422408
v 0.02902463 -0.1082394 -0.02902465
v -0.02971225 0.03594547 -0.02971226
v -0.02124615 0.0477756 -8.739753E-09
v 0.03127113 -0.1020055 -0.03127116
v 0.04104705 -0.1082394 -8.739753E-09
v 0.04422407 -0.1020055 -8.739753E-09
v 5.541255E-10 0.01885026 -0.04893063
v 0.03459916 0.01885026 -0.03459918
v 0.04893063 0.01885026 -8.739753E-09
v -0.01502332 0.0477756 -0.0150233
v -0.01855355 0.05398258 -8.739753E-09
v 5.541255E-10 0.03594547 -0.04201947
v 0.02971225 0.03594547 -0.02971226
v 0.04201946 0.03594547 -8.739753E-09
v -0.01311937 0.05398258 -0.01311936
v -0.02065606 0.07503688 -2.172952E-09
v 5.541255E-10 0.0477756 -0.02124616
v 0.01502329 0.0477756 -0.0150233
v 0.02124615 0.0477756 -8.739753E-09
v -0.01460604 0.07503688 -0.01460605
v -0.02465308 0.080233 -2.172952E-09
v 5.541255E-10 0.05398258 -0.01855357
v 0.01311937 0.05398258 -0.01311936
v 0.01855355 0.05398258 -8.739753E-09
v -0.01743228 0.080233 -0.0174323
v -0.02247827 0.09536252 -2.172952E-09
v -5.198029E-08 0.07503688 -0.02065605
v 0.01460598 0.07503688 -0.01460605
v 0.02065603 0.07503688 -2.172952E-09
v -0.01589457 0.09536252 -0.01589451
v -0.01457922 0.09536246 -2.172952E-09
v -0.01030909 0.09536246 -0.01030905
v -5.198029E-08 0.080233 -0.024653
v 0.01743226 0.080233 -0.0174323
v 0.02465301 0.080233 -2.172952E-09
v -5.198029E-08 0.09536252 -0.02247824
v -5.198029E-08 0.09536246 -0.01457921
v 0.01589447 0.09536252 -0.01589451
v 0.02247819 0.09536252 -2.172952E-09
v 0.01030904 0.09536246 -0.01030905
v 0.01457922 0.09536246 -2.172952E-09
v 0.01123882 0.09287202 -0.0112186
v -1.013859E-05 0.1082394 -0.01893039
v -1.013859E-05 0.09287202 -0.01587807
v 0.01339714 0.1082394 -0.01337692
v 0.0158983 0.09287202 3.035615E-05
v 0.01895061 0.1082394 3.035615E-05
v 0.01123882 0.09287202 0.01127932
v 0.01339714 0.1082394 0.01343763
v -1.013859E-05 0.09287202 0.01593879
v -1.013859E-05 0.1082394 0.0189911
v -0.0112591 0.09287202 0.01127932
v -0.01341742 0.1082394 0.01343763
v -0.01591858 0.09287202 3.035615E-05
v -0.01897088 0.1082394 3.035615E-05
v -0.0112591 0.09287202 -0.0112186
v -0.01341742 0.1082394 -0.01337692
v -1.013859E-05 0.09287202 -0.01587807
v -1.013859E-05 0.1082394 -0.01893039
v 0.01339714 0.1082394 -0.01337692
v -0.01341742 0.1082394 -0.01337692
v -1.013859E-05 0.1082394 -0.01893039
v 0.01339714 0.1082394 0.01343763
v 0.01895061 0.1082394 3.035615E-05
v -0.01341742 0.1082394 0.01343763
v -0.01897088 0.1082394 3.035615E-05
v -1.013859E-05 0.1082394 0.0189911
vt 0.2769662 0.8108199
vt 0.1469287 0.6828952
vt 0.2388791 0.7203633
vt 0.1469287 0.9387439
vt 0.2388791 0.9012756
vt 0.01689138 0.8108199
vt 0.05497847 0.7203633
vt 0.05497847 0.9012756
vt 0.5737772 0.03886261
vt 0.7157647 0.0584661
vt 0.7157647 0.03886261
vt 0.5737772 0.0584661
vt 0.7157647 0.5396951
vt 0.4317891 0.03886261
vt 0.5737772 0.5396951
vt 0.6710246 0.588989
vt 0.4317891 0.0584661
vt 0.2898012 0.03886261
vt 0.5513866 0.588989
vt 0.5837365 0.6261898
vt 0.2898012 0.0584661
vt 0.1478136 0.03886261
vt 0.1478136 0.0584661
vt 0.4317891 0.5396951
vt 0.2898012 0.5396951
vt 0.1478136 0.5396951
vt 0.5077022 0.6261898
vt 0.554549 0.6457087
vt 0.4317483 0.588989
vt 0.3121104 0.588989
vt 0.1924721 0.588989
vt 0.493095 0.6457087
vt 0.554549 0.759101
vt 0.4316674 0.6261898
vt 0.355633 0.6261898
vt 0.2795985 0.6261898
vt 0.493095 0.759101
vt 0.554549 0.7775369
vt 0.4316405 0.6457087
vt 0.3701862 0.6457087
vt 0.3087321 0.6457087
vt 0.493095 0.7775369
vt 0.554549 0.8402783
vt 0.4316405 0.759101
vt 0.3701862 0.759101
vt 0.3087321 0.759101
vt 0.493095 0.840278
vt 0.554549 0.8938459
vt 0.493095 0.8938459
vt 0.4316405 0.7775369
vt 0.3701862 0.7775369
vt 0.3087321 0.7775369
vt 0.4316405 0.840278
vt 0.4316405 0.8938459
vt 0.3701862 0.840278
vt 0.3087321 0.8402783
vt 0.3701862 0.8938459
vt 0.3087321 0.8938459
vt 0.5732529 0.03886261
vt 0.7152409 0.0584661
vt 0.7152409 0.03886261
vt 0.5732529 0.0584661
vt 0.7152409 0.5396951
vt 0.4312654 0.03886261
vt 0.5732529 0.5396951
vt 0.6705838 0.588989
vt 0.4312654 0.0584661
vt 0.2892773 0.03886261
vt 0.5509455 0.588989
vt 0.5834559 0.6261898
vt 0.2892773 0.0584661
vt 0.1472896 0.03886261
vt 0.1472896 0.0584661
vt 0.4312654 0.5396951
vt 0.2892773 0.5396951
vt 0.1472896 0.5396951
vt 0.5074214 0.6261898
vt 0.5543225 0.6457087
vt 0.431307 0.588989
vt 0.3116757 0.588989
vt 0.1920374 0.588989
vt 0.4928684 0.6457087
vt 0.5543225 0.759101
vt 0.431387 0.6261898
vt 0.3553568 0.6261898
vt 0.2793222 0.6261898
vt 0.4928684 0.759101
vt 0.5543225 0.7775369
vt 0.4314137 0.6457087
vt 0.3699631 0.6457087
vt 0.3085085 0.6457087
vt 0.4928684 0.7775369
vt 0.5543225 0.8402783
vt 0.4314137 0.759101
vt 0.3701385 0.7592633
vt 0.3085085 0.759101
vt 0.4928684 0.8402783
vt 0.5543225 0.8938459
vt 0.4928679 0.8938459
vt 0.4314137 0.7775369
vt 0.3699631 0.7775369
vt 0.3085085 0.7775369
vt 0.4314137 0.8402783
vt 0.4314137 0.8938459
vt 0.3699595 0.8402783
vt 0.3085052 0.8402783
vt 0.3699595 0.8938459
vt 0.3085052 0.8938459
vt 0.8246786 0.1813467
vt 0.877773 0.1303436
vt 0.8246786 0.1303436
vt 0.877773 0.1813467
vt 0.8246786 0.2323495
vt 0.877773 0.2323495
vt 0.8246786 0.2833525
vt 0.877773 0.2833525
vt 0.8246786 0.3343554
vt 0.877773 0.3343554
vt 0.8246786 0.3853582
vt 0.877773 0.3853582
vt 0.8246786 0.4363611
vt 0.877773 0.4363611
vt 0.8246786 0.4873643
vt 0.877773 0.4873643
vt 0.8246786 0.538367
vt 0.877773 0.538367
vt 0.7196418 0.8697841
vt 0.7196418 0.7252051
vt 0.6896983 0.7974946
vt 0.8642205 0.8697841
vt 0.791931 0.8997273
vt 0.8642207 0.7252051
vt 0.791931 0.6952617
vt 0.8941637 0.7974946
vn 0 -0.796458 0.6046939
vn -0.604695 -0.7964571 -1.235221E-07
vn -0.4275831 -0.796458 0.4275832
vn 0.604695 -0.7964572 1.235221E-07
vn 0.4275832 -0.7964579 0.4275832
vn 0 -0.7964577 -0.6046942
vn -0.4275832 -0.796458 -0.4275829
vn 0.4275829 -0.7964581 -0.4275832
vn 0.4275832 -0.7964579 0.4275832
vn 0.9706621 -0.2404479 0
vn 0.604695 -0.7964572 1.235221E-07
vn 0.6863614 -0.2404488 0.6863617
vn 0.9865097 0.1637025 0
vn 0 -0.796458 0.6046939
vn 0.6975677 0.1637022 0.6975679
vn 0.7838756 0.6209179 1.375039E-07
vn 0 -0.2404489 0.9706618
vn -0.4275831 -0.796458 0.4275832
vn 0.5542842 0.6209174 0.5542838
vn 0.7052218 0.7089866 1.17755E-07
vn -0.6863614 -0.2404487 0.6863617
vn -0.604695 -0.7964571 -1.235221E-07
vn -0.9706621 -0.2404479 0
vn 0 0.1637023 0.9865097
vn -0.6975675 0.1637022 0.6975681
vn -0.9865097 0.1637025 0
vn 0.4986675 0.708986 0.4986676
vn 0.9863726 0.1645267 0
vn 0 0.6209177 0.7838758
vn -0.5542839 0.6209176 0.554284
vn -0.7838756 0.6209178 0
vn 0.6974716 0.1645252 0.6974704
vn 0.9191613 -0.3938814 -3.559637E-07
vn 0 0.7089862 0.7052224
vn -0.4986675 0.7089858 0.498668
vn -0.705222 0.7089866 0
vn 0.6499445 -0.3938817 0.6499456
vn 0.9724545 -0.2330924 2.541925E-07
vn 3.4531E-07 0.1645251 0.9863729
vn -0.6974716 0.1645249 0.6974704
vn -0.9863728 0.1645262 0
vn 0.6876283 -0.2330941 0.6876295
vn 0.7303659 0.6830561 1.357459E-06
vn -9.195726E-07 -0.393882 0.919161
vn -0.649946 -0.3938814 0.6499443
vn -0.9191597 -0.3938853 1.077779E-06
vn 0.5164486 0.6830528 0.5164492
vn -5.845885E-06 1 1.586003E-06
vn 0 1 0
vn -7.746805E-07 -0.2330937 0.9724542
vn -0.6876272 -0.2330956 0.6876302
vn -0.972454 -0.2330948 -5.689085E-07
vn -2.924674E-07 0.6830528 0.730369
vn 0 1 0
vn -0.5164489 0.6830518 0.5164502
vn -0.7303662 0.6830558 -1.029469E-06
vn 1.690611E-06 1 5.523123E-07
vn 6.650727E-06 1 0
vn -0.4275832 -0.796458 -0.4275829
vn -0.9706621 -0.2404479 0
vn -0.604695 -0.7964571 -1.235221E-07
vn -0.6863614 -0.2404489 -0.6863617
vn -0.9865097 0.1637025 0
vn 0 -0.7964577 -0.6046942
vn -0.6975678 0.1637022 -0.6975678
vn -0.7838756 0.6209178 0
vn 0 -0.2404486 -0.9706619
vn 0.4275829 -0.7964581 -0.4275832
vn -0.554284 0.6209176 -0.5542838
vn -0.705222 0.7089866 0
vn 0.6863614 -0.2404489 -0.6863617
vn 0.604695 -0.7964572 1.235221E-07
vn 0.9706621 -0.2404479 0
vn 0 0.1637025 -0.9865097
vn 0.6975676 0.1637022 -0.6975678
vn 0.9865097 0.1637025 0
vn -0.4986678 0.7089865 -0.4986669
vn -0.9863728 0.1645262 0
vn 1.431163E-07 0.6209178 -0.7838756
vn 0.554284 0.6209176 -0.554284
vn 0.7838756 0.6209179 1.375039E-07
vn -0.6974713 0.1645256 -0.6974705
vn -0.9191597 -0.3938853 1.077779E-06
vn 2.011648E-07 0.7089864 -0.7052221
vn 0.4986678 0.7089857 -0.498668
vn 0.7052218 0.7089866 1.17755E-07
vn -0.6499452 -0.3938794 -0.6499463
vn -0.972454 -0.2330948 -5.689085E-07
vn 3.875422E-07 0.1645257 -0.9863729
vn 0.6974715 0.1645256 -0.6974704
vn 0.9863726 0.1645267 0
vn -0.6876283 -0.2330924 -0.6876303
vn -0.7303662 0.6830558 -1.029469E-06
vn -1.112386E-06 -0.3938801 -0.9191619
vn 0.649945 -0.3938794 -0.6499466
vn 0.9191613 -0.3938814 -3.559637E-07
vn -0.5164496 0.6830534 -0.5164473
vn 6.650727E-06 1 0
vn 4.702776E-06 1 4.702769E-06
vn -5.991662E-07 -0.2330927 -0.9724544
vn 0.6876285 -0.2330925 -0.6876299
vn 0.9724545 -0.2330924 2.541925E-07
vn 0 0.6830547 -0.7303673
vn 0 1 6.650744E-06
vn 0.5164471 0.683055 -0.5164477
vn 0.7303659 0.6830561 1.357459E-06
vn -4.702802E-06 1 4.702792E-06
vn -5.845885E-06 1 1.586003E-06
vn 0.6935577 -0.1948173 -0.6935588
vn 1.290011E-07 -0.194817 -0.9808396
vn 1.564004E-07 -0.194817 -0.9808396
vn 0.6935582 -0.1948171 -0.6935585
vn 0.9808397 -0.1948165 3.714512E-07
vn 0.9808397 -0.1948164 3.332529E-07
vn 0.6935582 -0.1948168 0.6935586
vn 0.6935586 -0.1948172 0.6935582
vn 0 -0.1948167 0.9808397
vn 0 -0.1948167 0.9808397
vn -0.6935576 -0.1948171 0.6935589
vn -0.6935583 -0.1948168 0.6935585
vn -0.9808397 -0.1948164 -4.789766E-07
vn -0.9808397 -0.1948165 -3.44003E-07
vn -0.6935583 -0.194817 -0.6935585
vn -0.6935585 -0.1948173 -0.6935582
vn 1.564004E-07 -0.194817 -0.9808396
vn 1.290011E-07 -0.194817 -0.9808396
vn 0 1 0
vn 0 1 0
vn 0 1 0
vn 0 1 0
vn 0 1 0
vn 0 1 0
vn 0 1 0
vn 0 1 0
g bottle_0
f 3/3/3 2/2/2 1/1/1
f 2/2/2 4/4/4 1/1/1
f 1/1/1 4/4/4 5/5/5
f 6/6/6 4/4/4 2/2/2
f 7/7/7 6/6/6 2/2/2
f 8/8/8 4/4/4 6/6/6
f 11/11/11 10/10/10 9/9/9
f 12/12/12 9/9/9 10/10/10
f 10/10/10 13/13/13 12/12/12
f 9/9/9 12/12/12 14/14/14
f 15/15/15 12/12/12 13/13/13
f 13/13/13 16/16/16 15/15/15
f 17/17/17 14/14/14 12/12/12
f 12/12/12 15/15/15 17/17/17
f 14/14/14 17/17/17 18/18/18
f 19/19/19 15/15/15 16/16/16
f 16/16/16 20/20/20 19/19/19
f 21/21/21 18/18/18 17/17/17
f 18/18/18 21/21/21 22/22/22
f 23/23/23 22/22/22 21/21/21
f 24/24/24 17/17/17 15/15/15
f 17/17/17 24/24/24 21/21/21
f 15/15/15 19/19/19 24/24/24
f 21/21/21 25/25/25 23/23/23
f 25/25/25 21/21/21 24/24/24
f 26/26/26 23/23/23 25/25/25
f 27/27/27 19/19/19 20/20/20
f 20/20/20 28/28/28 27/27/27
f 29/29/29 24/24/24 19/19/19
f 24/24/24 29/29/29 25/25/25
f 19/19/19 27/27/27 29/29/29
f 25/25/25 30/30/30 26/26/26
f 30/30/30 25/25/25 29/29/29
f 31/31/31 26/26/26 30/30/30
f 32/32/32 27/27/27 28/28/28
f 28/28/28 33/33/33 32/32/32
f 34/34/34 29/29/29 27/27/27
f 29/29/29 34/34/34 30/30/30
f 27/27/27 32/32/32 34/34/34
f 30/30/30 35/35/35 31/31/31
f 35/35/35 30/30/30 34/34/34
f 36/36/36 31/31/31 35/35/35
f 37/37/37 32/32/32 33/33/33
f 33/33/33 38/38/38 37/37/37
f 39/39/39 34/34/34 32/32/32
f 34/34/34 39/39/39 35/35/35
f 32/32/32 37/37/37 39/39/39
f 35/35/35 40/40/40 36/36/36
f 40/40/40 35/35/35 39/39/39
f 41/41/41 36/36/36 40/40/40
f 42/42/42 37/37/37 38/38/38
f 38/38/38 43/43/43 42/42/42
f 44/44/44 39/39/39 37/37/37
f 39/39/39 44/44/44 40/40/40
f 37/37/37 42/42/42 44/44/44
f 40/40/40 45/45/45 41/41/41
f 45/45/45 40/40/40 44/44/44
f 46/46/46 41/41/41 45/45/45
f 47/47/47 42/42/42 43/43/43
f 43/43/43 48/48/48 47/47/47
f 49/49/49 47/47/47 48/48/48
f 50/50/50 44/44/44 42/42/42
f 44/44/44 50/50/50 45/45/45
f 42/42/42 47/47/47 50/50/50
f 45/45/45 51/51/51 46/46/46
f 51/51/51 45/45/45 50/50/50
f 52/52/52 46/46/46 51/51/51
f 47/47/47 49/49/49 53/53/53
f 53/53/53 50/50/50 47/47/47
f 50/50/50 53/53/53 51/51/51
f 54/54/54 53/53/53 49/49/49
f 51/51/51 55/55/55 52/52/52
f 55/55/55 51/51/51 53/53/53
f 53/53/53 54/54/54 55/55/55
f 56/56/56 52/52/52 55/55/55
f 57/57/57 55/55/55 54/54/54
f 55/55/55 57/57/57 56/56/56
f 58/58/58 56/56/56 57/57/57
f 61/61/61 60/60/60 59/59/59
f 62/62/62 59/59/59 60/60/60
f 60/60/60 63/63/63 62/62/62
f 59/59/59 62/62/62 64/64/64
f 65/65/65 62/62/62 63/63/63
f 63/63/63 66/66/66 65/65/65
f 67/67/67 64/64/64 62/62/62
f 62/62/62 65/65/65 67/67/67
f 64/64/64 67/67/67 68/68/68
f 69/69/69 65/65/65 66/66/66
f 66/66/66 70/70/70 69/69/69
f 71/71/71 68/68/68 67/67/67
f 68/68/68 71/71/71 72/72/72
f 73/73/73 72/72/72 71/71/71
f 74/74/74 67/67/67 65/65/65
f 67/67/67 74/74/74 71/71/71
f 65/65/65 69/69/69 74/74/74
f 71/71/71 75/75/75 73/73/73
f 75/75/75 71/71/71 74/74/74
f 76/76/76 73/73/73 75/75/75
f 77/77/77 69/69/69 70/70/70
f 70/70/70 78/78/78 77/77/77
f 79/79/79 74/74/74 69/69/69
f 74/74/74 79/79/79 75/75/75
f 69/69/69 77/77/77 79/79/79
f 75/75/75 80/80/80 76/76/76
f 80/80/80 75/75/75 79/79/79
f 81/81/81 76/76/76 80/80/80
f 82/82/82 77/77/77 78/78/78
f 78/78/78 83/83/83 82/82/82
f 84/84/84 79/79/79 77/77/77
f 79/79/79 84/84/84 80/80/80
f 77/77/77 82/82/82 84/84/84
f 80/80/80 85/85/85 81/81/81
f 85/85/85 80/80/80 84/84/84
f 86/86/86 81/81/81 85/85/85
f 87/87/87 82/82/82 83/83/83
f 83/83/83 88/88/88 87/87/87
f 89/89/89 84/84/84 82/82/82
f 84/84/84 89/89/89 85/85/85
f 82/82/82 87/87/87 89/89/89
f 85/85/85 90/90/90 86/86/86
f 90/90/90 85/85/85 89/89/89
f 91/91/91 86/86/86 90/90/90
f 92/92/92 87/87/87 88/88/88
f 88/88/88 93/93/93 92/92/92
f 94/94/94 89/89/89 87/87/87
f 89/89/89 94/94/94 90/90/90
f 87/87/87 92/92/92 94/94/94
f 90/90/90 95/95/95 91/91/91
f 95/95/95 90/90/90 94/94/94
f 96/96/96 91/91/91 95/95/95
f 97/97/97 92/92/92 93/93/93
f 93/93/93 98/98/98 97/97/97
f 99/99/99 97/97/97 98/98/98
f 100/100/100 94/94/94 92/92/92
f 94/94/94 100/100/100 95/95/95
f 92/92/92 97/97/97 100/100/100
f 95/95/95 101/101/101 96/96/96
f 101/101/101 95/95/95 100/100/100
f 102/102/102 96/96/96 101/101/101
f 97/97/97 99/99/99 103/103/103
f 103/103/103 100/100/100 97/97/97
f 100/100/100 103/103/103 101/101/101
f 104/104/104 103/103/103 99/99/99
f 101/101/101 105/105/105 102/102/102
f 105/105/105 101/101/101 103/103/103
f 103/103/103 104/104/104 105/105/105
f 106/106/106 102/102/102 105/105/105
f 107/107/107 105/105/105 104/104/104
f 105/105/105 107/107/107 106/106/106
f 108/108/108 106/106/106 107/107/107
f 111/111/111 110/110/110 109/109/109
f 112/112/112 109/109/109 110/110/110
f 109/109/109 112/112/112 113/113/113
f 114/114/114 113/113/113 112/112/112
f 113/113/113 114/114/114 115/115/115
f 116/116/116 115/115/115 114/114/114
f 115/115/115 116/116/116 117/117/117
f 118/118/118 117/117/117 116/116/116
f 117/117/117 118/118/118 119/119/119
f 120/120/120 119/119/119 118/118/118
f 119/119/119 120/120/120 121/121/121
f 122/122/122 121/121/121 120/120/120
f 121/121/121 122/122/122 123/123/123
f 124/124/124 123/123/123 122/122/122
f 123/123/123 124/124/124 125/125/125
f 126/126/126 125/125/125 124/124/124
f 129/129/129 128/128/128 127/127/127
f 128/128/128 130/130/130 127/127/127
f 127/127/127 130/130/130 131/131/131
f 132/132/132 130/130/130 128/128/128
f 133/133/133 132/132/132 128/128/128
f 134/134/134 130/130/130 132/132/132
